inDegrees=no
num_controls=7
num_derivatives=13
num_iterations=105
num_multipliers=7
num_parameters=0
num_slacks=7
num_states=26
objective=5.625531
objective_accelerations=0.286568
objective_balance=0.016118
objective_effort=0.375561
objective_height=4.838107
objective_ligament=0.109177
solver_duration=903.569133
status=Solve_Succeeded
success=true
DataType=double
version=3
OpenSimVersion=4.4-2022-07-23-0e9fedc
endheader
time	/jointset/ground_pelvis/pelvis_tilt/value	/jointset/ground_pelvis/pelvis_tx/value	/jointset/ground_pelvis/pelvis_ty/value	/jointset/hip_r/hip_flexion_r/value	/jointset/hip_r/hip_adduction_r/value	/jointset/hip_r/hip_rotation_r/value	/jointset/back/lumbar_extension/value	/jointset/patellofemoral_r/patellar_flexion_r/value	/jointset/knee_r/knee_flexion_r/value	/jointset/knee_r/knee_adduction_r/value	/jointset/knee_r/knee_rotation_r/value	/jointset/ankle_r/ankle_angle_r/value	/jointset/subtalar_r/subtalar_angle_r/value	/jointset/ground_pelvis/pelvis_tilt/speed	/jointset/ground_pelvis/pelvis_tx/speed	/jointset/ground_pelvis/pelvis_ty/speed	/jointset/hip_r/hip_flexion_r/speed	/jointset/hip_r/hip_adduction_r/speed	/jointset/hip_r/hip_rotation_r/speed	/jointset/back/lumbar_extension/speed	/jointset/patellofemoral_r/patellar_flexion_r/speed	/jointset/knee_r/knee_flexion_r/speed	/jointset/knee_r/knee_adduction_r/speed	/jointset/knee_r/knee_rotation_r/speed	/jointset/ankle_r/ankle_angle_r/speed	/jointset/subtalar_r/subtalar_angle_r/speed	/forceset/tau_hip_flexion_r	/forceset/tau_hip_adduction_r	/forceset/tau_hip_rotation_r	/forceset/tau_knee_flexion_r	/forceset/tau_ankle_angle_r	/forceset/tau_subtalar_angle_r	/forceset/tau_lumbar_extension	lambda_cid13_p0	lambda_cid14_p0	lambda_cid14_p1	lambda_cid14_p2	lambda_cid14_p3	lambda_cid14_p4	lambda_cid14_p5	/jointset/ground_pelvis/pelvis_tilt/accel	/jointset/ground_pelvis/pelvis_tx/accel	/jointset/ground_pelvis/pelvis_ty/accel	/jointset/hip_r/hip_flexion_r/accel	/jointset/hip_r/hip_adduction_r/accel	/jointset/hip_r/hip_rotation_r/accel	/jointset/back/lumbar_extension/accel	/jointset/patellofemoral_r/patellar_flexion_r/accel	/jointset/knee_r/knee_flexion_r/accel	/jointset/knee_r/knee_adduction_r/accel	/jointset/knee_r/knee_rotation_r/accel	/jointset/ankle_r/ankle_angle_r/accel	/jointset/subtalar_r/subtalar_angle_r/accel	gamma_cid13_p0	gamma_cid14_p0	gamma_cid14_p1	gamma_cid14_p2	gamma_cid14_p3	gamma_cid14_p4	gamma_cid14_p5
0.5	-0.05056796912108946	0.06692413802442415	0.886088775997761	0.5639075235545346	-0.2230715834558553	-0.1583366579521711	-0.3053711911457836	0.5891957509938998	0.5891957509938892	0.04024208007557429	0.174530654079004	0.2451073563542652	0.06098337091412965	-0.1269198980797915	-0.05541862530759398	-0.23606851602554	1.050155968302788	-0.001671300512183075	0.2034586819806699	-0.601186207375653	1.420235311463268	1.420235311463165	-0.2830060166812168	-6.348734265593996e-05	0.5814355235524042	0.1668708138571004	-0.04130621588841758	-0.01987744164330528	0.004111784429509716	-0.327233565381912	0.06707242948492313	-0.01505672777816546	0.1121976660884558	-37.0748458090197	-21.29846482656968	-6.091803195111602	-3.339445593677074	3.481217815524247	-676.1377505360075	58.7857520677477	0.01236430427008128	0.2096413592688989	-0.2710772191355201	-0.6768197827384416	-0.09336592090325396	-0.4831823169269416	1.109631401264933	-0.8599927839157188	-0.8599927839156886	0.3809600564527919	0.0002335823587802199	-0.3194180690583951	-0.07500948504586241	-7.547409567919646e-08	-1.01759374642997e-07	4.101470599310238e-07	-9.622756174930478e-07	1.377910512068181e-08	-1.158828712465968e-07	7.797497964387983e-07
0.51	-0.05183662973686565	0.06638049389331978	0.8837149771045951	0.5743740372474816	-0.2230935698356661	-0.1563254069458336	-0.311326611347666	0.6033531846614972	0.6033531846615439	0.03743292323464283	0.1745299654874382	0.2509047658479739	0.06264720895706395	-0.1267976047804383	-0.05330480288931205	-0.2386402833787644	1.043007323778198	-0.002721751855647383	0.1987744525051063	-0.58982812575111	1.411052433356588	1.411052433356512	-0.2788158752987644	-6.456537373990011e-05	0.5779676838178934	0.165875865955195	-0.04534275901071059	-0.01847765062762243	0.004743680589154121	-0.3298526273468765	0.06294473536421154	-0.01433859383076012	0.1160708084086915	-36.42378640456653	-22.70068685702605	-6.113431601502573	-3.235485599917534	4.013877742786421	-678.3149769753043	58.72783715065742	0.01434585385832661	0.213065940657778	-0.2426019966409016	-0.7548149625113874	-0.1103870568570613	-0.4637411165613669	1.159352630590241	-0.977269407891818	-0.9772694078879474	0.4394491890487134	0.001007852073478871	-0.3722744986285461	-0.1149324820129945	-6.876730920688111e-08	-9.752747205484921e-08	3.426133976576934e-07	-9.283516596714628e-07	1.798371429685198e-08	-1.077589994315461e-07	7.194273372569909e-07
0.52	-0.05310363061742682	0.06585815063790848	0.8813169854372498	0.5847648788601297	-0.2231259611920763	-0.1543615378049867	-0.3171663595157971	0.617412822731247	0.6174128227313515	0.0346659494095137	0.1745295233851516	0.2566651354297428	0.06430045851312924	-0.1265879510374591	-0.05115845016897964	-0.2409070708613316	1.035021552245909	-0.003752295830645196	0.1939823088819092	-0.5780518006249222	1.400676191895978	1.400676191895927	-0.274569413520026	-1.41894882065835e-05	0.5740275411641332	0.1647531164832887	-0.04937930213314486	-0.01707785961198638	0.005375576749059803	-0.3324716893118918	0.05881704124347656	-0.01362045988342046	0.1199439507288245	-35.74977134814047	-24.11106061774581	-6.133052683632435	-3.135769424040643	4.539143565638726	-680.6301109035082	58.73489980313555	0.02983639299550491	0.2161474196788481	-0.210081245004083	-0.8442451842781822	-0.08938444720989296	-0.5047651464537337	1.193280101593989	-1.098665454701963	-1.098665454702001	0.3922241357098931	0.0105243656823527	-0.4138786529084723	-0.1005697990460705	-6.404274836907225e-08	-9.241261822617961e-08	3.074881465448388e-07	-8.85980838307617e-07	1.841174921113002e-08	-9.931589772513085e-08	6.716963375950292e-07
0.53	-0.05436801905208724	0.06535739139869688	0.8788978717567204	0.5950717184770172	-0.2231685681553957	-0.1524457296177458	-0.3228863392539043	0.6313628860193444	0.6313628860193856	0.03194191203571284	0.1745295905864597	0.2623837799773291	0.06594180608572107	-0.1262674789895484	-0.04899200539195259	-0.242862737434533	1.026208747517293	-0.004771659722073432	0.1892047407951126	-0.565882029120367	1.389150813072109	1.389150813072098	-0.2701959247772605	1.358119045285362e-05	0.5696239109328931	0.1634843636869199	-0.05351061951134355	-0.01564218848310801	0.006048299402160506	-0.3347450400643715	0.05427449118453548	-0.01298008572898988	0.1238626488040316	-35.05562931464326	-25.65713590240226	-6.214567030897402	-3.021203000049403	5.203375654625053	-682.8704957258336	58.62212429728033	0.0364828242455259	0.2171055758401143	-0.1803891681788158	-0.9204518678032821	-0.1087248235372536	-0.4605627809763246	1.238143356404916	-1.207309681861123	-1.207309681855115	0.4662164576184168	-0.003352803650880007	-0.4652265819704474	-0.1448899637567041	-5.390771339675645e-08	-5.159322223752681e-08	3.923038127075813e-07	-5.495986361309421e-07	-1.65897991418456e-08	-4.421749008325145e-08	5.321349274664275e-07
